<svg width="760" height="92" viewBox="0 0 760 92" fill="none" xmlns="http://www.w3.org/2000/svg">
<path d="M36.296 92C34.504 92 33.16 91.552 32.264 90.656C31.368 89.76 30.92 88.416 30.92 86.624V16.096H6.088C4.296 16.096 2.952 15.648 2.056 14.752C1.16 13.856 0.712 12.512 0.712 10.72C0.712 8.928 1.16 7.584 2.056 6.688C2.952 5.79199 4.296 5.34399 6.088 5.34399H66.504C68.296 5.34399 69.64 5.79199 70.536 6.688C71.432 7.584 71.88 8.928 71.88 10.72C71.88 12.512 71.432 13.856 70.536 14.752C69.64 15.648 68.296 16.096 66.504 16.096H41.672V86.624C41.672 88.3307 41.2027 89.6533 40.264 90.592C39.368 91.5307 38.0453 92 36.296 92Z" fill="#BF1717"/>
<path d="M96.617 63.968V67.04C96.617 72.544 97.6197 76.2987 99.625 78.304C101.63 80.2667 105.406 81.248 110.953 81.248H121.449C125.801 81.248 129.022 80.8427 131.113 80.032C133.204 79.2213 134.59 77.792 135.273 75.744C135.742 74.1227 136.382 72.8853 137.193 72.032C138.046 71.1787 139.326 70.752 141.033 70.752C142.825 70.752 144.19 71.2213 145.129 72.16C146.068 73.0987 146.366 74.464 146.025 76.256C145.086 81.5467 142.569 85.4933 138.473 88.096C134.377 90.6987 128.702 92 121.449 92H110.953C102.462 92 96.1477 89.952 92.009 85.856C87.913 81.76 85.865 75.488 85.865 67.04V52.192C85.865 43.5307 87.913 37.1733 92.009 33.12C96.1477 29.024 102.462 27.0187 110.953 27.104H121.449C129.982 27.104 136.297 29.152 140.393 33.248C144.489 37.3013 146.537 43.616 146.537 52.192V58.592C146.537 62.176 144.745 63.968 141.161 63.968H96.617ZM110.953 37.856C105.406 37.7707 101.63 38.7307 99.625 40.736C97.6197 42.7413 96.617 46.56 96.617 52.192V53.216H135.785V52.192C135.785 46.6027 134.782 42.8267 132.777 40.864C130.814 38.8587 127.038 37.856 121.449 37.856H110.953ZM192.078 92C183.587 92 177.273 89.952 173.134 85.856C169.038 81.7173 166.99 75.4027 166.99 66.912V52.064C166.99 43.5307 169.017 37.216 173.07 33.12C177.166 29.024 183.502 27.0187 192.078 27.104H202.574C208.931 27.104 213.923 28.1707 217.55 30.304C221.219 32.4373 223.566 35.7227 224.59 40.16C224.974 41.952 224.654 43.3387 223.63 44.32C222.649 45.3013 221.219 45.792 219.342 45.792C217.678 45.792 216.462 45.3653 215.694 44.512C214.926 43.6587 214.222 42.464 213.582 40.928C212.942 39.776 211.769 38.9867 210.062 38.56C208.355 38.0907 205.859 37.856 202.574 37.856H192.078C186.574 37.7707 182.798 38.7307 180.75 40.736C178.745 42.6987 177.742 46.4747 177.742 52.064V66.912C177.742 72.4587 178.745 76.2347 180.75 78.24C182.798 80.2453 186.574 81.248 192.078 81.248H202.574C205.859 81.248 208.355 81.0347 210.062 80.608C211.769 80.1387 212.942 79.328 213.582 78.176C214.222 76.5547 214.926 75.3387 215.694 74.528C216.505 73.7173 217.763 73.312 219.47 73.312C221.262 73.312 222.649 73.8027 223.63 74.784C224.654 75.7653 224.974 77.152 224.59 78.944C223.566 83.3387 221.219 86.624 217.55 88.8C213.923 90.9333 208.931 92 202.574 92H192.078ZM252.313 92C248.729 92 246.937 90.208 246.937 86.624V7.26399C246.937 3.67999 248.729 1.88799 252.313 1.88799C255.897 1.88799 257.689 3.67999 257.689 7.26399V34.592C262.212 29.6 268.868 27.104 277.657 27.104H281.241C289.774 27.104 296.089 29.152 300.185 33.248C304.281 37.344 306.329 43.6587 306.329 52.192V86.624C306.329 90.208 304.537 92 300.953 92C297.369 92 295.577 90.208 295.577 86.624V52.192C295.577 46.6027 294.553 42.8267 292.505 40.864C290.5 38.8587 286.745 37.856 281.241 37.856H277.657C272.537 37.856 268.078 38.4533 264.281 39.648C260.484 40.8 258.286 42.6347 257.689 45.152V86.624C257.689 90.208 255.897 92 252.313 92ZM337.063 92C333.479 92 331.687 90.208 331.687 86.624V32.48C331.687 28.896 333.479 27.104 337.063 27.104C340.647 27.104 342.439 28.896 342.439 32.48V34.592C346.962 29.6 353.618 27.104 362.407 27.104H365.991C374.524 27.104 380.839 29.152 384.935 33.248C389.031 37.344 391.079 43.6587 391.079 52.192V86.624C391.079 90.208 389.287 92 385.703 92C382.119 92 380.327 90.208 380.327 86.624V52.192C380.327 46.6027 379.303 42.8267 377.255 40.864C375.25 38.8587 371.495 37.856 365.991 37.856H362.407C357.287 37.856 352.828 38.4533 349.031 39.648C345.234 40.8 343.036 42.6347 342.439 45.152V86.624C342.439 90.208 340.647 92 337.063 92ZM438.453 92C429.962 92 423.648 89.952 419.509 85.856C415.413 81.76 413.365 75.488 413.365 67.04V52.192C413.365 43.616 415.413 37.3013 419.509 33.248C423.648 29.152 429.962 27.104 438.453 27.104H448.949C457.482 27.104 463.797 29.152 467.893 33.248C471.989 37.344 474.037 43.6587 474.037 52.192V66.912C474.037 75.4027 471.989 81.7173 467.893 85.856C463.797 89.952 457.482 92 448.949 92H438.453ZM424.117 67.04C424.117 72.544 425.12 76.2987 427.125 78.304C429.13 80.2667 432.906 81.248 438.453 81.248H448.949C454.538 81.248 458.314 80.2453 460.277 78.24C462.282 76.2347 463.285 72.4587 463.285 66.912V52.192C463.285 46.6027 462.282 42.8267 460.277 40.864C458.314 38.8587 454.538 37.856 448.949 37.856H438.453C434.741 37.856 431.84 38.2827 429.749 39.136C427.701 39.9467 426.25 41.3973 425.397 43.488C424.544 45.536 424.117 48.4373 424.117 52.192V67.04ZM583.396 16.608C579.343 16.608 577.316 14.56 577.316 10.464V6.688C577.316 2.67733 579.343 0.671997 583.396 0.671997H587.108C590.991 0.671997 592.932 2.67733 592.932 6.688V10.464C592.932 14.56 590.991 16.608 587.108 16.608H583.396ZM585.188 92C581.604 92 579.812 90.208 579.812 86.624V32.48C579.812 28.896 581.604 27.104 585.188 27.104C588.772 27.104 590.564 28.896 590.564 32.48V86.624C590.564 90.208 588.772 92 585.188 92ZM622.563 92C618.979 92 617.187 90.208 617.187 86.624V7.26399C617.187 3.67999 618.979 1.88799 622.563 1.88799C626.147 1.88799 627.939 3.67999 627.939 7.26399V33.952C630.158 31.6907 632.931 29.984 636.259 28.832C639.587 27.68 643.47 27.104 647.907 27.104H652.771C661.304 27.104 667.619 29.152 671.715 33.248C675.811 37.344 677.859 43.6587 677.859 52.192V66.912C677.859 75.4027 675.811 81.7173 671.715 85.856C667.619 89.952 661.304 92 652.771 92H647.907C643.47 92 639.587 91.424 636.259 90.272C632.931 89.12 630.158 87.4347 627.939 85.216V86.624C627.939 90.208 626.147 92 622.563 92ZM647.907 81.248H652.771C658.36 81.248 662.136 80.2453 664.099 78.24C666.104 76.192 667.107 72.416 667.107 66.912V52.192C667.107 46.6027 666.083 42.8267 664.035 40.864C662.03 38.8587 658.275 37.856 652.771 37.856H647.907C642.275 37.856 637.539 38.5813 633.699 40.032C629.859 41.44 627.939 43.6587 627.939 46.688V72.416C627.939 75.4027 629.859 77.6213 633.699 79.072C637.539 80.5227 642.275 81.248 647.907 81.248ZM709.117 63.968V67.04C709.117 72.544 710.12 76.2987 712.125 78.304C714.13 80.2667 717.906 81.248 723.453 81.248H733.949C738.301 81.248 741.522 80.8427 743.613 80.032C745.704 79.2213 747.09 77.792 747.773 75.744C748.242 74.1227 748.882 72.8853 749.693 72.032C750.546 71.1787 751.826 70.752 753.533 70.752C755.325 70.752 756.69 71.2213 757.629 72.16C758.568 73.0987 758.866 74.464 758.525 76.256C757.586 81.5467 755.069 85.4933 750.973 88.096C746.877 90.6987 741.202 92 733.949 92H723.453C714.962 92 708.648 89.952 704.509 85.856C700.413 81.76 698.365 75.488 698.365 67.04V52.192C698.365 43.5307 700.413 37.1733 704.509 33.12C708.648 29.024 714.962 27.0187 723.453 27.104H733.949C742.482 27.104 748.797 29.152 752.893 33.248C756.989 37.3013 759.037 43.616 759.037 52.192V58.592C759.037 62.176 757.245 63.968 753.661 63.968H709.117ZM723.453 37.856C717.906 37.7707 714.13 38.7307 712.125 40.736C710.12 42.7413 709.117 46.56 709.117 52.192V53.216H748.285V52.192C748.285 46.6027 747.282 42.8267 745.277 40.864C743.314 38.8587 739.538 37.856 733.949 37.856H723.453Z" fill="black"/>
<path d="M524.826 92C522.607 92 520.858 90.592 519.578 87.776L487.962 12.896C487.322 11.4027 487.151 10.08 487.45 8.92799C487.749 7.73333 488.73 6.75199 490.394 5.98399C493.893 4.23466 496.367 5.13066 497.818 8.672L527.706 79.456H523.994L553.114 8.672C554.522 5.17333 556.997 4.27733 560.538 5.98399C562.031 6.75199 562.949 7.73333 563.29 8.92799C563.674 10.08 563.567 11.4027 562.97 12.896L531.098 87.776C529.775 90.592 527.855 92 525.338 92H524.826Z" fill="#B50C0C"/>
</svg>
