<svg width="72" height="87" viewBox="0 0 72 87" fill="none" xmlns="http://www.w3.org/2000/svg">
<path d="M36.296 87C34.504 87 33.16 86.552 32.264 85.656C31.368 84.76 30.92 83.416 30.92 81.624V11.096H6.088C4.296 11.096 2.952 10.648 2.056 9.752C1.16 8.856 0.712 7.512 0.712 5.71999C0.712 3.928 1.16 2.584 2.056 1.688C2.952 0.791995 4.296 0.343994 6.088 0.343994H66.504C68.296 0.343994 69.64 0.791995 70.536 1.688C71.432 2.584 71.88 3.928 71.88 5.71999C71.88 7.512 71.432 8.856 70.536 9.752C69.64 10.648 68.296 11.096 66.504 11.096H41.672V81.624C41.672 83.3307 41.2027 84.6533 40.264 85.592C39.368 86.5307 38.0453 87 36.296 87Z" fill="#BF1717"/>
</svg>
